<svg xmlns="http://www.w3.org/2000/svg" xmlns:xlink="http://www.w3.org/1999/xlink" width="404" zoomAndPan="magnify" viewBox="0 0 303 374.999991" height="500" preserveAspectRatio="xMidYMid meet" version="1.0"><defs><g/></defs><rect x="-30.3" width="363.6" fill="#ffffff" y="-37.499999" height="449.999989" fill-opacity="1"/><rect x="-30.3" width="363.6" fill="#000000" y="-37.499999" height="449.999989" fill-opacity="1"/><path fill="#ffffff" d="M 151.378906 188.082031 C 152.917969 188.082031 154.457031 188.046875 155.996094 187.96875 C 157.535156 187.894531 159.070312 187.78125 160.601562 187.628906 C 162.132812 187.480469 163.660156 187.292969 165.183594 187.066406 C 166.707031 186.839844 168.222656 186.578125 169.734375 186.277344 C 171.242188 185.976562 172.746094 185.636719 174.238281 185.265625 C 175.734375 184.890625 177.214844 184.480469 178.691406 184.03125 C 180.164062 183.585938 181.625 183.101562 183.074219 182.585938 C 184.523438 182.066406 185.960938 181.511719 187.382812 180.921875 C 188.804688 180.332031 190.210938 179.710938 191.605469 179.050781 C 192.996094 178.394531 194.371094 177.699219 195.726562 176.976562 C 197.085938 176.25 198.425781 175.492188 199.746094 174.699219 C 201.066406 173.90625 202.367188 173.082031 203.648438 172.226562 C 204.925781 171.371094 206.1875 170.488281 207.421875 169.570312 C 208.660156 168.652344 209.871094 167.707031 211.0625 166.726562 C 212.253906 165.75 213.417969 164.746094 214.558594 163.710938 C 215.699219 162.679688 216.816406 161.617188 217.902344 160.527344 C 218.992188 159.441406 220.054688 158.324219 221.089844 157.183594 C 222.121094 156.042969 223.128906 154.878906 224.105469 153.6875 C 225.082031 152.496094 226.027344 151.285156 226.945312 150.046875 C 227.863281 148.8125 228.75 147.550781 229.605469 146.273438 C 230.460938 144.992188 231.28125 143.691406 232.074219 142.371094 C 232.867188 141.050781 233.625 139.710938 234.351562 138.351562 C 235.074219 136.996094 235.769531 135.621094 236.425781 134.226562 C 237.085938 132.835938 237.707031 131.429688 238.296875 130.007812 C 238.886719 128.585938 239.441406 127.148438 239.960938 125.699219 C 240.476562 124.25 240.960938 122.789062 241.40625 121.3125 C 241.855469 119.839844 242.265625 118.355469 242.640625 116.863281 C 243.011719 115.371094 243.351562 113.867188 243.652344 112.359375 C 243.953125 110.847656 244.214844 109.332031 244.441406 107.808594 C 244.667969 106.285156 244.855469 104.757812 245.007812 103.226562 C 245.15625 101.695312 245.269531 100.160156 245.34375 98.621094 C 245.421875 97.082031 245.457031 95.542969 245.457031 94.003906 C 245.457031 92.464844 245.421875 90.925781 245.34375 89.386719 C 245.269531 87.851562 245.15625 86.316406 245.007812 84.785156 C 244.855469 83.25 244.667969 81.722656 244.441406 80.199219 C 244.214844 78.675781 243.953125 77.160156 243.652344 75.652344 C 243.351562 74.140625 243.015625 72.640625 242.640625 71.144531 C 242.265625 69.652344 241.855469 68.167969 241.40625 66.695312 C 240.960938 65.222656 240.476562 63.761719 239.960938 62.3125 C 239.441406 60.859375 238.886719 59.425781 238.296875 58.003906 C 237.707031 56.582031 237.085938 55.171875 236.425781 53.78125 C 235.769531 52.390625 235.078125 51.015625 234.351562 49.65625 C 233.625 48.296875 232.867188 46.960938 232.074219 45.640625 C 231.28125 44.316406 230.460938 43.019531 229.605469 41.738281 C 228.75 40.457031 227.863281 39.199219 226.945312 37.960938 C 226.027344 36.726562 225.082031 35.511719 224.105469 34.320312 C 223.128906 33.132812 222.121094 31.964844 221.089844 30.824219 C 220.054688 29.683594 218.992188 28.570312 217.90625 27.480469 C 216.816406 26.390625 215.703125 25.332031 214.558594 24.296875 C 213.417969 23.261719 212.253906 22.257812 211.0625 21.28125 C 209.875 20.304688 208.660156 19.355469 207.421875 18.441406 C 206.1875 17.523438 204.929688 16.636719 203.648438 15.78125 C 202.367188 14.925781 201.066406 14.101562 199.746094 13.3125 C 198.425781 12.519531 197.085938 11.761719 195.730469 11.035156 C 194.371094 10.308594 192.996094 9.617188 191.605469 8.957031 C 190.214844 8.300781 188.804688 7.675781 187.382812 7.085938 C 185.960938 6.5 184.523438 5.945312 183.074219 5.425781 C 181.625 4.90625 180.164062 4.425781 178.691406 3.976562 C 177.21875 3.53125 175.734375 3.121094 174.242188 2.746094 C 172.746094 2.371094 171.246094 2.035156 169.734375 1.734375 C 168.226562 1.433594 166.707031 1.171875 165.1875 0.945312 C 163.664062 0.71875 162.136719 0.53125 160.601562 0.378906 C 159.070312 0.226562 157.535156 0.113281 155.996094 0.0390625 C 154.460938 -0.0351562 152.921875 -0.0742188 151.382812 -0.0742188 C 149.839844 -0.0742188 148.304688 -0.0351562 146.765625 0.0390625 C 145.226562 0.113281 143.691406 0.226562 142.160156 0.378906 C 140.628906 0.527344 139.101562 0.71875 137.578125 0.945312 C 136.054688 1.167969 134.539062 1.433594 133.027344 1.734375 C 131.515625 2.035156 130.015625 2.371094 128.523438 2.746094 C 127.027344 3.117188 125.546875 3.527344 124.070312 3.976562 C 122.597656 4.421875 121.136719 4.90625 119.6875 5.425781 C 118.238281 5.941406 116.800781 6.496094 115.378906 7.085938 C 113.957031 7.675781 112.550781 8.300781 111.15625 8.957031 C 109.765625 9.617188 108.390625 10.308594 107.03125 11.035156 C 105.675781 11.757812 104.335938 12.519531 103.015625 13.308594 C 101.695312 14.101562 100.394531 14.925781 99.113281 15.78125 C 97.832031 16.636719 96.574219 17.519531 95.339844 18.4375 C 94.101562 19.355469 92.886719 20.300781 91.699219 21.277344 C 90.507812 22.257812 89.34375 23.261719 88.203125 24.296875 C 87.0625 25.328125 85.945312 26.390625 84.855469 27.480469 C 83.769531 28.566406 82.707031 29.683594 81.671875 30.824219 C 80.640625 31.964844 79.632812 33.128906 78.65625 34.320312 C 77.679688 35.511719 76.734375 36.722656 75.816406 37.960938 C 74.898438 39.195312 74.011719 40.457031 73.15625 41.734375 C 72.300781 43.015625 71.476562 44.316406 70.6875 45.636719 C 69.894531 46.957031 69.136719 48.296875 68.410156 49.652344 C 67.683594 51.011719 66.992188 52.386719 66.335938 53.777344 C 65.675781 55.171875 65.050781 56.578125 64.464844 58 C 63.875 59.421875 63.320312 60.859375 62.800781 62.308594 C 62.28125 63.757812 61.800781 65.21875 61.351562 66.691406 C 60.90625 68.167969 60.496094 69.648438 60.121094 71.144531 C 59.746094 72.636719 59.410156 74.136719 59.109375 75.648438 C 58.808594 77.160156 58.546875 78.675781 58.320312 80.199219 C 58.09375 81.722656 57.90625 83.25 57.753906 84.78125 C 57.601562 86.3125 57.488281 87.847656 57.414062 89.386719 C 57.339844 90.921875 57.300781 92.460938 57.300781 94.003906 C 57.300781 95.542969 57.34375 97.078125 57.417969 98.617188 C 57.496094 100.15625 57.609375 101.6875 57.761719 103.21875 C 57.914062 104.753906 58.105469 106.277344 58.332031 107.800781 C 58.558594 109.324219 58.824219 110.839844 59.125 112.347656 C 59.425781 113.859375 59.765625 115.359375 60.140625 116.851562 C 60.515625 118.34375 60.925781 119.828125 61.375 121.300781 C 61.824219 122.773438 62.304688 124.234375 62.824219 125.683594 C 63.34375 127.132812 63.898438 128.566406 64.488281 129.988281 C 65.078125 131.410156 65.703125 132.816406 66.363281 134.207031 C 67.019531 135.597656 67.714844 136.972656 68.441406 138.332031 C 69.164062 139.6875 69.925781 141.027344 70.714844 142.347656 C 71.507812 143.667969 72.332031 144.964844 73.1875 146.246094 C 74.042969 147.527344 74.929688 148.785156 75.847656 150.019531 C 76.761719 151.253906 77.710938 152.46875 78.6875 153.660156 C 79.664062 154.847656 80.667969 156.011719 81.703125 157.152344 C 82.738281 158.292969 83.796875 159.410156 84.886719 160.496094 C 85.972656 161.585938 87.089844 162.644531 88.230469 163.679688 C 89.371094 164.714844 90.535156 165.71875 91.722656 166.695312 C 92.914062 167.671875 94.125 168.621094 95.363281 169.535156 C 96.597656 170.453125 97.855469 171.339844 99.136719 172.195312 C 100.417969 173.050781 101.714844 173.875 103.035156 174.667969 C 104.355469 175.457031 105.695312 176.21875 107.050781 176.945312 C 108.410156 177.667969 109.78125 178.363281 111.175781 179.019531 C 112.566406 179.679688 113.972656 180.304688 115.394531 180.894531 C 116.816406 181.484375 118.25 182.039062 119.699219 182.558594 C 121.148438 183.078125 122.609375 183.5625 124.082031 184.007812 C 125.554688 184.457031 127.035156 184.867188 128.53125 185.242188 C 130.023438 185.617188 131.523438 185.957031 133.03125 186.257812 C 134.542969 186.558594 136.058594 186.824219 137.582031 187.050781 C 139.101562 187.277344 140.628906 187.46875 142.160156 187.621094 C 143.691406 187.773438 145.226562 187.886719 146.765625 187.964844 C 148.300781 188.042969 149.839844 188.082031 151.378906 188.082031 Z M 151.378906 16.195312 C 152.652344 16.195312 153.925781 16.226562 155.199219 16.289062 C 156.46875 16.351562 157.738281 16.445312 159.007812 16.570312 C 160.273438 16.695312 161.539062 16.851562 162.796875 17.039062 C 164.058594 17.226562 165.3125 17.441406 166.558594 17.691406 C 167.808594 17.9375 169.050781 18.21875 170.285156 18.527344 C 171.523438 18.835938 172.75 19.175781 173.96875 19.546875 C 175.1875 19.914062 176.394531 20.316406 177.59375 20.746094 C 178.792969 21.171875 179.980469 21.632812 181.15625 22.117188 C 182.332031 22.605469 183.496094 23.121094 184.648438 23.667969 C 185.800781 24.210938 186.9375 24.78125 188.058594 25.382812 C 189.183594 25.984375 190.292969 26.609375 191.382812 27.265625 C 192.476562 27.921875 193.550781 28.601562 194.609375 29.308594 C 195.667969 30.015625 196.710938 30.75 197.734375 31.507812 C 198.753906 32.265625 199.757812 33.050781 200.742188 33.859375 C 201.726562 34.664062 202.691406 35.496094 203.636719 36.351562 C 204.578125 37.207031 205.5 38.085938 206.402344 38.984375 C 207.300781 39.886719 208.179688 40.808594 209.035156 41.75 C 209.890625 42.695312 210.722656 43.660156 211.53125 44.644531 C 212.339844 45.628906 213.121094 46.632812 213.878906 47.65625 C 214.636719 48.675781 215.371094 49.71875 216.078125 50.777344 C 216.785156 51.835938 217.46875 52.910156 218.121094 54.003906 C 218.777344 55.097656 219.40625 56.203125 220.003906 57.328125 C 220.605469 58.449219 221.175781 59.585938 221.722656 60.738281 C 222.265625 61.890625 222.78125 63.054688 223.269531 64.230469 C 223.757812 65.40625 224.214844 66.59375 224.644531 67.792969 C 225.074219 68.992188 225.472656 70.199219 225.84375 71.417969 C 226.210938 72.636719 226.550781 73.863281 226.859375 75.101562 C 227.171875 76.335938 227.449219 77.578125 227.699219 78.828125 C 227.945312 80.074219 228.164062 81.328125 228.351562 82.589844 C 228.539062 83.847656 228.695312 85.113281 228.816406 86.378906 C 228.941406 87.648438 229.035156 88.917969 229.097656 90.1875 C 229.160156 91.460938 229.191406 92.734375 229.191406 94.007812 C 229.191406 95.28125 229.160156 96.554688 229.097656 97.824219 C 229.035156 99.097656 228.941406 100.367188 228.816406 101.632812 C 228.695312 102.902344 228.539062 104.164062 228.351562 105.425781 C 228.164062 106.683594 227.945312 107.9375 227.699219 109.1875 C 227.449219 110.4375 227.171875 111.679688 226.859375 112.914062 C 226.550781 114.148438 226.210938 115.375 225.84375 116.59375 C 225.472656 117.8125 225.074219 119.023438 224.644531 120.222656 C 224.214844 121.421875 223.757812 122.609375 223.269531 123.785156 C 222.78125 124.960938 222.265625 126.125 221.722656 127.277344 C 221.175781 128.425781 220.605469 129.5625 220.003906 130.6875 C 219.40625 131.808594 218.777344 132.917969 218.121094 134.011719 C 217.46875 135.101562 216.785156 136.179688 216.078125 137.238281 C 215.371094 138.296875 214.636719 139.335938 213.878906 140.359375 C 213.121094 141.382812 212.335938 142.386719 211.53125 143.371094 C 210.722656 144.355469 209.890625 145.320312 209.035156 146.261719 C 208.179688 147.207031 207.300781 148.128906 206.402344 149.027344 C 205.5 149.929688 204.578125 150.804688 203.636719 151.660156 C 202.691406 152.515625 201.726562 153.347656 200.742188 154.15625 C 199.757812 154.964844 198.753906 155.746094 197.734375 156.507812 C 196.710938 157.265625 195.667969 157.996094 194.609375 158.703125 C 193.550781 159.414062 192.476562 160.09375 191.382812 160.75 C 190.292969 161.402344 189.183594 162.03125 188.058594 162.628906 C 186.9375 163.230469 185.800781 163.804688 184.648438 164.347656 C 183.496094 164.890625 182.332031 165.40625 181.15625 165.894531 C 179.980469 166.382812 178.792969 166.839844 177.59375 167.269531 C 176.394531 167.699219 175.1875 168.097656 173.96875 168.46875 C 172.75 168.835938 171.523438 169.175781 170.285156 169.484375 C 169.050781 169.796875 167.808594 170.074219 166.558594 170.324219 C 165.3125 170.570312 164.058594 170.789062 162.796875 170.976562 C 161.539062 171.164062 160.273438 171.320312 159.007812 171.441406 C 157.738281 171.566406 156.46875 171.660156 155.199219 171.722656 C 153.925781 171.785156 152.652344 171.816406 151.378906 171.816406 C 150.105469 171.816406 148.832031 171.785156 147.5625 171.722656 C 146.289062 171.660156 145.019531 171.566406 143.753906 171.441406 C 142.484375 171.316406 141.222656 171.160156 139.960938 170.976562 C 138.703125 170.789062 137.449219 170.570312 136.199219 170.320312 C 134.949219 170.074219 133.707031 169.792969 132.472656 169.484375 C 131.238281 169.175781 130.011719 168.835938 128.792969 168.464844 C 127.574219 168.097656 126.363281 167.699219 125.164062 167.269531 C 123.96875 166.839844 122.777344 166.382812 121.601562 165.894531 C 120.425781 165.40625 119.261719 164.890625 118.109375 164.347656 C 116.960938 163.800781 115.824219 163.230469 114.699219 162.628906 C 113.578125 162.027344 112.46875 161.402344 111.375 160.746094 C 110.285156 160.089844 109.207031 159.410156 108.148438 158.703125 C 107.089844 157.996094 106.050781 157.261719 105.027344 156.503906 C 104.003906 155.746094 103 154.960938 102.015625 154.152344 C 101.03125 153.34375 100.070312 152.515625 99.125 151.660156 C 98.179688 150.804688 97.257812 149.925781 96.359375 149.023438 C 95.457031 148.125 94.582031 147.203125 93.726562 146.257812 C 92.871094 145.316406 92.039062 144.351562 91.230469 143.367188 C 90.421875 142.382812 89.640625 141.378906 88.882812 140.355469 C 88.125 139.332031 87.390625 138.292969 86.683594 137.234375 C 85.976562 136.175781 85.292969 135.097656 84.640625 134.007812 C 83.984375 132.914062 83.359375 131.804688 82.757812 130.683594 C 82.15625 129.558594 81.585938 128.421875 81.039062 127.273438 C 80.496094 126.121094 79.980469 124.957031 79.492188 123.78125 C 79.003906 122.601562 78.546875 121.414062 78.117188 120.214844 C 77.691406 119.019531 77.289062 117.808594 76.921875 116.589844 C 76.550781 115.371094 76.210938 114.144531 75.902344 112.910156 C 75.59375 111.675781 75.3125 110.433594 75.066406 109.183594 C 74.816406 107.933594 74.601562 106.679688 74.414062 105.417969 C 74.226562 104.160156 74.070312 102.898438 73.945312 101.628906 C 73.820312 100.363281 73.726562 99.09375 73.664062 97.820312 C 73.601562 96.546875 73.570312 95.277344 73.570312 94.003906 C 73.574219 92.730469 73.605469 91.457031 73.667969 90.1875 C 73.734375 88.914062 73.828125 87.644531 73.953125 86.378906 C 74.082031 85.113281 74.238281 83.847656 74.425781 82.589844 C 74.613281 81.332031 74.832031 80.078125 75.082031 78.828125 C 75.332031 77.582031 75.609375 76.339844 75.921875 75.105469 C 76.230469 73.871094 76.570312 72.644531 76.941406 71.425781 C 77.3125 70.207031 77.710938 69 78.140625 67.800781 C 78.570312 66.601562 79.03125 65.417969 79.519531 64.242188 C 80.007812 63.066406 80.523438 61.902344 81.066406 60.75 C 81.613281 59.601562 82.183594 58.464844 82.785156 57.339844 C 83.386719 56.21875 84.011719 55.113281 84.667969 54.019531 C 85.324219 52.929688 86.003906 51.855469 86.710938 50.796875 C 87.417969 49.738281 88.152344 48.699219 88.910156 47.675781 C 89.667969 46.652344 90.453125 45.648438 91.261719 44.664062 C 92.066406 43.683594 92.898438 42.71875 93.753906 41.773438 C 94.609375 40.832031 95.488281 39.910156 96.386719 39.011719 C 97.289062 38.109375 98.210938 37.234375 99.152344 36.378906 C 100.09375 35.523438 101.058594 34.691406 102.042969 33.882812 C 103.027344 33.074219 104.03125 32.292969 105.050781 31.535156 C 106.074219 30.777344 107.113281 30.042969 108.171875 29.335938 C 109.230469 28.628906 110.304688 27.945312 111.398438 27.292969 C 112.488281 26.636719 113.597656 26.007812 114.71875 25.410156 C 115.839844 24.808594 116.976562 24.234375 118.128906 23.691406 C 119.277344 23.144531 120.441406 22.628906 121.617188 22.140625 C 122.792969 21.652344 123.980469 21.195312 125.179688 20.765625 C 126.378906 20.335938 127.585938 19.9375 128.804688 19.566406 C 130.019531 19.195312 131.246094 18.855469 132.480469 18.546875 C 133.714844 18.234375 134.957031 17.953125 136.207031 17.707031 C 137.453125 17.457031 138.707031 17.238281 139.96875 17.050781 C 141.226562 16.863281 142.488281 16.703125 143.757812 16.578125 C 145.023438 16.453125 146.292969 16.359375 147.5625 16.292969 C 148.835938 16.230469 150.105469 16.199219 151.378906 16.195312 Z M 151.378906 16.195312 " fill-opacity="1" fill-rule="nonzero"/><path fill="#ffffff" d="M 151.378906 203.078125 C 148.910156 203.078125 146.445312 203.140625 143.980469 203.265625 C 141.515625 203.390625 139.054688 203.574219 136.601562 203.816406 C 134.144531 204.0625 131.695312 204.367188 129.253906 204.730469 C 126.816406 205.09375 124.382812 205.519531 121.964844 206.003906 C 119.542969 206.484375 117.136719 207.027344 114.746094 207.628906 C 112.351562 208.230469 109.972656 208.890625 107.613281 209.609375 C 105.25 210.328125 102.910156 211.101562 100.585938 211.933594 C 98.265625 212.769531 95.960938 213.65625 93.683594 214.601562 C 91.402344 215.546875 89.148438 216.550781 86.917969 217.605469 C 84.6875 218.660156 82.484375 219.773438 80.308594 220.9375 C 78.132812 222.101562 75.988281 223.316406 73.871094 224.585938 C 71.753906 225.855469 69.671875 227.175781 67.617188 228.546875 C 65.566406 229.921875 63.550781 231.339844 61.570312 232.8125 C 59.585938 234.28125 57.640625 235.800781 55.734375 237.367188 C 53.828125 238.933594 51.960938 240.542969 50.132812 242.199219 C 48.300781 243.859375 46.515625 245.558594 44.769531 247.304688 C 43.027344 249.050781 41.324219 250.835938 39.667969 252.664062 C 38.011719 254.492188 36.398438 256.359375 34.832031 258.269531 C 33.265625 260.175781 31.75 262.121094 30.277344 264.101562 C 28.808594 266.082031 27.386719 268.101562 26.015625 270.152344 C 24.644531 272.203125 23.324219 274.289062 22.054688 276.402344 C 20.785156 278.519531 19.566406 280.664062 18.402344 282.84375 C 17.238281 285.019531 16.128906 287.222656 15.070312 289.453125 C 14.015625 291.683594 13.015625 293.9375 12.070312 296.214844 C 11.125 298.496094 10.234375 300.796875 9.402344 303.121094 C 8.566406 305.441406 7.792969 307.785156 7.074219 310.144531 C 6.355469 312.507812 5.695312 314.882812 5.09375 317.277344 C 4.492188 319.671875 3.953125 322.078125 3.46875 324.496094 C 2.984375 326.917969 2.558594 329.347656 2.195312 331.789062 C 1.832031 334.230469 1.527344 336.675781 1.28125 339.132812 C 1.039062 341.589844 0.855469 344.050781 0.730469 346.515625 C 0.609375 348.976562 0.542969 351.445312 0.542969 353.914062 C 0.542969 354.605469 0.574219 355.292969 0.640625 355.980469 C 0.710938 356.667969 0.8125 357.351562 0.945312 358.03125 C 1.078125 358.707031 1.246094 359.378906 1.449219 360.039062 C 1.648438 360.703125 1.882812 361.351562 2.144531 361.992188 C 2.410156 362.628906 2.707031 363.253906 3.03125 363.863281 C 3.355469 364.472656 3.710938 365.066406 4.09375 365.640625 C 4.480469 366.214844 4.890625 366.769531 5.328125 367.304688 C 5.769531 367.839844 6.230469 368.351562 6.722656 368.839844 C 7.210938 369.328125 7.722656 369.792969 8.253906 370.230469 C 8.789062 370.667969 9.34375 371.078125 9.917969 371.464844 C 10.496094 371.847656 11.085938 372.203125 11.695312 372.527344 C 12.304688 372.855469 12.929688 373.148438 13.570312 373.414062 C 14.207031 373.679688 14.859375 373.910156 15.519531 374.109375 C 16.183594 374.3125 16.851562 374.480469 17.53125 374.613281 C 18.207031 374.746094 18.890625 374.847656 19.578125 374.917969 C 20.265625 374.984375 20.957031 375.015625 21.648438 375.015625 L 281.097656 375.015625 C 282.734375 375.011719 284.347656 374.820312 285.9375 374.445312 C 287.53125 374.066406 289.058594 373.511719 290.519531 372.78125 C 291.984375 372.050781 293.34375 371.164062 294.605469 370.117188 C 295.863281 369.070312 296.984375 367.898438 297.972656 366.59375 C 299.351562 364.765625 300.402344 362.765625 301.128906 360.597656 C 301.851562 358.425781 302.210938 356.195312 302.207031 353.90625 C 302.203125 351.441406 302.140625 348.972656 302.015625 346.507812 C 301.894531 344.042969 301.707031 341.585938 301.464844 339.128906 C 301.21875 336.671875 300.914062 334.226562 300.550781 331.785156 C 300.1875 329.34375 299.761719 326.914062 299.28125 324.496094 C 298.796875 322.074219 298.253906 319.667969 297.652344 317.273438 C 297.050781 314.882812 296.390625 312.503906 295.671875 310.144531 C 294.953125 307.78125 294.179688 305.441406 293.347656 303.117188 C 292.515625 300.796875 291.625 298.496094 290.679688 296.214844 C 289.734375 293.9375 288.734375 291.679688 287.675781 289.449219 C 286.621094 287.21875 285.511719 285.019531 284.347656 282.84375 C 283.183594 280.667969 281.964844 278.519531 280.695312 276.402344 C 279.425781 274.289062 278.105469 272.203125 276.734375 270.152344 C 275.363281 268.101562 273.941406 266.085938 272.472656 264.101562 C 271 262.121094 269.484375 260.175781 267.917969 258.269531 C 266.351562 256.363281 264.742188 254.496094 263.082031 252.667969 C 261.425781 250.835938 259.726562 249.050781 257.980469 247.304688 C 256.234375 245.5625 254.449219 243.859375 252.621094 242.203125 C 250.792969 240.546875 248.925781 238.933594 247.015625 237.367188 C 245.109375 235.800781 243.164062 234.285156 241.183594 232.8125 C 239.203125 231.34375 237.183594 229.921875 235.132812 228.550781 C 233.082031 227.179688 231 225.859375 228.882812 224.589844 C 226.765625 223.320312 224.621094 222.101562 222.445312 220.9375 C 220.269531 219.773438 218.066406 218.664062 215.835938 217.609375 C 213.605469 216.550781 211.351562 215.550781 209.070312 214.605469 C 206.792969 213.660156 204.492188 212.769531 202.167969 211.9375 C 199.847656 211.105469 197.503906 210.328125 195.144531 209.609375 C 192.78125 208.894531 190.40625 208.234375 188.011719 207.632812 C 185.621094 207.03125 183.210938 206.488281 180.792969 206.003906 C 178.375 205.519531 175.941406 205.097656 173.503906 204.730469 C 171.0625 204.367188 168.613281 204.0625 166.15625 203.820312 C 163.703125 203.574219 161.242188 203.390625 158.777344 203.265625 C 156.3125 203.144531 153.847656 203.078125 151.378906 203.078125 Z M 284.980469 356.824219 C 284.523438 357.433594 283.953125 357.90625 283.273438 358.242188 C 282.589844 358.582031 281.867188 358.75 281.105469 358.746094 L 21.65625 358.746094 C 20.804688 358.75 20.007812 358.542969 19.265625 358.121094 C 18.523438 357.699219 17.933594 357.121094 17.5 356.386719 C 17.039062 355.625 16.8125 354.796875 16.820312 353.90625 C 16.828125 351.710938 16.890625 349.515625 17.007812 347.324219 C 17.125 345.128906 17.296875 342.941406 17.519531 340.757812 C 17.742188 338.570312 18.019531 336.394531 18.351562 334.222656 C 18.683594 332.050781 19.066406 329.886719 19.5 327.734375 C 19.9375 325.582031 20.425781 323.441406 20.96875 321.3125 C 21.511719 319.183594 22.101562 317.070312 22.746094 314.972656 C 23.390625 312.871094 24.089844 310.789062 24.835938 308.722656 C 25.582031 306.660156 26.378906 304.613281 27.226562 302.585938 C 28.074219 300.558594 28.96875 298.554688 29.914062 296.570312 C 30.859375 294.589844 31.851562 292.632812 32.894531 290.699219 C 33.933594 288.761719 35.019531 286.855469 36.15625 284.976562 C 37.289062 283.09375 38.46875 281.242188 39.695312 279.417969 C 40.921875 277.597656 42.1875 275.804688 43.5 274.042969 C 44.816406 272.28125 46.167969 270.554688 47.566406 268.859375 C 48.964844 267.167969 50.402344 265.507812 51.882812 263.882812 C 53.359375 262.257812 54.878906 260.671875 56.433594 259.121094 C 57.988281 257.574219 59.582031 256.0625 61.214844 254.589844 C 62.84375 253.117188 64.507812 251.6875 66.210938 250.296875 C 67.910156 248.90625 69.644531 247.558594 71.410156 246.253906 C 73.175781 244.949219 74.972656 243.6875 76.800781 242.46875 C 78.628906 241.253906 80.488281 240.082031 82.371094 238.953125 C 84.257812 237.828125 86.167969 236.746094 88.109375 235.714844 C 90.046875 234.683594 92.007812 233.699219 93.996094 232.761719 C 95.980469 231.824219 97.992188 230.9375 100.019531 230.097656 C 102.050781 229.261719 104.101562 228.472656 106.167969 227.734375 C 108.238281 226.996094 110.324219 226.308594 112.425781 225.671875 C 114.527344 225.035156 116.644531 224.453125 118.773438 223.921875 C 120.90625 223.386719 123.046875 222.910156 125.203125 222.480469 C 127.355469 222.054688 129.519531 221.679688 131.695312 221.359375 C 133.867188 221.035156 136.046875 220.769531 138.230469 220.554688 C 140.417969 220.339844 142.605469 220.179688 144.800781 220.070312 C 146.996094 219.964844 149.1875 219.910156 151.386719 219.910156 C 153.582031 219.910156 155.777344 219.964844 157.972656 220.070312 C 160.164062 220.179688 162.355469 220.339844 164.539062 220.554688 C 166.726562 220.769531 168.90625 221.035156 171.078125 221.359375 C 173.25 221.679688 175.414062 222.054688 177.570312 222.480469 C 179.722656 222.910156 181.867188 223.386719 183.996094 223.921875 C 186.128906 224.453125 188.246094 225.035156 190.347656 225.671875 C 192.449219 226.308594 194.535156 226.996094 196.601562 227.734375 C 198.671875 228.472656 200.722656 229.261719 202.75 230.097656 C 204.78125 230.9375 206.789062 231.824219 208.777344 232.761719 C 210.761719 233.699219 212.726562 234.683594 214.664062 235.714844 C 216.601562 236.746094 218.515625 237.828125 220.398438 238.953125 C 222.285156 240.082031 224.140625 241.253906 225.96875 242.46875 C 227.796875 243.6875 229.59375 244.949219 231.363281 246.253906 C 233.128906 247.558594 234.863281 248.90625 236.5625 250.296875 C 238.261719 251.6875 239.925781 253.117188 241.558594 254.589844 C 243.1875 256.0625 244.78125 257.574219 246.339844 259.121094 C 247.894531 260.671875 249.410156 262.257812 250.890625 263.882812 C 252.371094 265.507812 253.808594 267.167969 255.203125 268.859375 C 256.601562 270.554688 257.957031 272.28125 259.269531 274.042969 C 260.582031 275.804688 261.851562 277.597656 263.078125 279.417969 C 264.300781 281.242188 265.480469 283.09375 266.617188 284.976562 C 267.75 286.855469 268.839844 288.761719 269.878906 290.699219 C 270.917969 292.632812 271.914062 294.589844 272.859375 296.574219 C 273.804688 298.554688 274.699219 300.558594 275.546875 302.585938 C 276.394531 304.613281 277.191406 306.660156 277.9375 308.722656 C 278.683594 310.789062 279.378906 312.871094 280.023438 314.972656 C 280.667969 317.070312 281.261719 319.183594 281.804688 321.3125 C 282.34375 323.441406 282.832031 325.582031 283.269531 327.734375 C 283.707031 329.886719 284.089844 332.050781 284.421875 334.222656 C 284.75 336.394531 285.027344 338.570312 285.253906 340.757812 C 285.476562 342.941406 285.644531 345.128906 285.761719 347.324219 C 285.878906 349.515625 285.941406 351.710938 285.953125 353.90625 C 285.949219 354.984375 285.625 355.953125 284.972656 356.8125 Z M 284.980469 356.824219 " fill-opacity="1" fill-rule="nonzero"/><g fill="#000000" fill-opacity="1"><g transform="translate(46.946312, 190.674011)"><g><path d="M 4.984375 0 L 4.78125 -0.921875 L 4.734375 -0.921875 C 4.421875 -0.515625 4.101562 -0.238281 3.78125 -0.09375 C 3.46875 0.0507812 3.070312 0.125 2.59375 0.125 C 1.957031 0.125 1.457031 -0.0390625 1.09375 -0.375 C 0.726562 -0.707031 0.546875 -1.175781 0.546875 -1.78125 C 0.546875 -3.070312 1.582031 -3.75 3.65625 -3.8125 L 4.75 -3.84375 L 4.75 -4.25 C 4.75 -4.75 4.640625 -5.117188 4.421875 -5.359375 C 4.210938 -5.597656 3.867188 -5.71875 3.390625 -5.71875 C 2.847656 -5.71875 2.242188 -5.554688 1.578125 -5.234375 L 1.265625 -5.984375 C 1.585938 -6.148438 1.9375 -6.28125 2.3125 -6.375 C 2.6875 -6.476562 3.066406 -6.53125 3.453125 -6.53125 C 4.210938 -6.53125 4.773438 -6.359375 5.140625 -6.015625 C 5.515625 -5.679688 5.703125 -5.140625 5.703125 -4.390625 L 5.703125 0 Z M 2.78125 -0.6875 C 3.382812 -0.6875 3.859375 -0.851562 4.203125 -1.1875 C 4.554688 -1.519531 4.734375 -1.984375 4.734375 -2.578125 L 4.734375 -3.15625 L 3.75 -3.125 C 2.976562 -3.09375 2.421875 -2.96875 2.078125 -2.75 C 1.742188 -2.539062 1.578125 -2.210938 1.578125 -1.765625 C 1.578125 -1.410156 1.679688 -1.140625 1.890625 -0.953125 C 2.097656 -0.773438 2.394531 -0.6875 2.78125 -0.6875 Z M 2.78125 -0.6875 "/></g></g></g></svg>